<svg version="1.2" baseProfile="tiny" xmlns="http://www.w3.org/2000/svg" viewBox="0 0 24 24">
  <path fill="none" d="M0 0h24v24H0V0z"/>
  <path d="M16.487 12a2.248 2.248 0 10.001-4.497A2.248 2.248 0 0016.487 12zm0 1.125c-1.501 0-4.499.754-4.499 2.249v.562c0 .309.253.562.562.562h7.872a.564.564 0 00.562-.562v-.562c.002-1.496-2.995-2.249-4.497-2.249zm-10.254-.859a5.674 5.674 0 01-.622.81c-.557.586-1.285.742-2.069.702-.705-.036-.701 1.057 0 1.093 1.474.075 2.516-.562 3.346-1.647a9.412 9.412 0 01-.378-.53 16.245 16.245 0 01-.277-.428zm1.423-.87l.226.351c.138-.191.286-.375.452-.547.419-.433.897-.61 1.421-.661l-.099.121c-.192.228-.224.549 0 .773.197.197.581.228.773 0 .296-.351.578-.713.873-1.065.192-.193.266-.515.028-.773l-.984-1.065c-.479-.519-1.25.256-.773.773l.128.138c-.536.038-1.053.175-1.53.485a4.1 4.1 0 00-.923.855c.054.075.107.152.16.232.085.127.168.257.248.383zm2.772 1.171a.473.473 0 00-.369-.16.58.58 0 00-.404.16c-.224.224-.192.545 0 .773l.099.121c-.524-.05-1.002-.228-1.421-.661a5.613 5.613 0 01-.628-.8c-.183-.273-.354-.554-.536-.829a5.951 5.951 0 00-.106-.154c-.815-1.169-1.834-1.894-3.29-1.894a4.55 4.55 0 00-.232.006c-.69.035-.704 1.093-.034 1.093l.034-.001a4.28 4.28 0 01.225-.006c.698 0 1.34.178 1.844.708.31.327.555.7.794 1.077.113.179.226.358.344.535.101.151.206.302.316.449.313.418.668.805 1.108 1.091.477.31.993.446 1.53.485l-.128.138c-.366.396.002.944.41.944a.489.489 0 00.363-.172l.983-1.065c.238-.258.165-.58-.028-.773-.296-.352-.578-.714-.874-1.065z"/>
</svg>
